<?xml version="1.0" encoding="UTF-8" standalone="no"?>
<!-- Created with Inkscape (http://www.inkscape.org/) -->

<svg
   xmlns:dc="http://purl.org/dc/elements/1.1/"
   xmlns:cc="http://creativecommons.org/ns#"
   xmlns:rdf="http://www.w3.org/1999/02/22-rdf-syntax-ns#"
   xmlns:svg="http://www.w3.org/2000/svg"
   xmlns="http://www.w3.org/2000/svg"
   xmlns:sodipodi="http://sodipodi.sourceforge.net/DTD/sodipodi-0.dtd"
   xmlns:inkscape="http://www.inkscape.org/namespaces/inkscape"
   width="454.36099mm"
   height="79.99958mm"
   viewBox="0 0 454.36099 79.99958"
   version="1.1"
   id="svg8"
   inkscape:version="0.92.3 (2405546, 2018-03-11)"
   sodipodi:docname="BoletoEducativo.svg">
  <defs
     id="defs2" />
  <sodipodi:namedview
     id="base"
     pagecolor="#7a7a7a"
     bordercolor="#666666"
     borderopacity="1.0"
     inkscape:pageopacity="0"
     inkscape:pageshadow="2"
     inkscape:zoom="0.175"
     inkscape:cx="983.70413"
     inkscape:cy="-37.112728"
     inkscape:document-units="mm"
     inkscape:current-layer="layer1"
     showgrid="false"
     fit-margin-top="0"
     fit-margin-left="0"
     fit-margin-right="0"
     fit-margin-bottom="0"
     inkscape:window-width="1920"
     inkscape:window-height="1001"
     inkscape:window-x="-9"
     inkscape:window-y="-9"
     inkscape:window-maximized="1" />
  <metadata
     id="metadata5">
    <rdf:RDF>
      <cc:Work
         rdf:about="">
        <dc:format>image/svg+xml</dc:format>
        <dc:type
           rdf:resource="http://purl.org/dc/dcmitype/StillImage" />
        <dc:title></dc:title>
      </cc:Work>
    </rdf:RDF>
  </metadata>
  <g
     inkscape:label="Layer 1"
     inkscape:groupmode="layer"
     id="layer1"
     transform="translate(-534.59532,-525.43993)">
    <path
       style="fill:#ffffff;fill-opacity:1;stroke-width:0.95726889"
       d="m 3454.0859,2089.1094 c -49.8047,0.01 -99.5902,0.5621 -103.8437,1.6601 -21.0837,5.4426 -37.2572,20.4684 -44.2676,41.125 l -2.5996,7.6582 v 100.5118 100.5136 l 2.623,7.6582 c 3.3458,9.7666 6.9568,15.9914 13.3438,22.9942 9.2106,10.0985 22.3883,17.1938 36.2051,19.4961 v 0 c 2.9884,0.4981 47.0702,0.8146 101.9492,0.7324 l 96.6836,-0.1445 7.6582,-2.6094 c 4.212,-1.4343 10.4034,-4.2348 13.7598,-6.2226 8.3751,-4.9603 19.0715,-16.513 23.1894,-25.0508 1.7911,-3.7135 3.5244,-6.7629 3.8555,-6.7774 0.3311,-0.015 1.1616,1.3749 1.8437,3.086 2.2106,5.5446 9.1638,15.4338 14.4317,20.5254 6.6126,6.3912 14.6738,11.1892 24.2871,14.4511 l 7.6582,2.5977 h 99.0781 c 91.4376,0 99.5564,-0.1303 105.2988,-1.6797 18.6954,-5.0443 33.9793,-18.0979 41.5332,-35.4746 1.6449,-3.7836 3.42,-6.8834 3.9434,-6.8906 0.5234,-0.01 1.8549,2.2141 2.9609,4.9355 7.4079,18.2266 23.345,32.2604 42.5039,37.4297 5.7416,1.549 13.839,1.6797 104.8204,1.6797 h 98.5996 l 7.1796,-2.2402 c 11.2283,-3.5046 17.9131,-7.5386 26.4258,-15.9434 6.1667,-6.0885 8.5792,-9.3352 11.7442,-15.8008 7.0285,-14.3581 6.7871,-10.1881 6.7871,-117.2656 0,-106.7317 0.2106,-103.0146 -6.5781,-116.7852 -6.8431,-13.8805 -19.2266,-24.904 -34.5508,-30.7597 l -7.1797,-2.7461 -100.4063,-0.2598 c -112.2494,-0.2918 -105.2982,-0.675 -120.1894,6.625 -13.1208,6.4321 -24.7914,19.5799 -29.666,33.4219 -1.0081,2.8627 -2.1282,5.2051 -2.4903,5.2051 -0.362,0 -1.6574,-2.7593 -2.8789,-6.1328 -4.9192,-13.5855 -16.1652,-25.9774 -29.6347,-32.6563 -14.3326,-7.1068 -7.7558,-6.7538 -119.7676,-6.4629 l -100.4043,0.2598 -7.1797,2.7461 c -14.9486,5.7122 -27.3251,16.5447 -34.1992,29.9355 -1.987,3.8708 -3.8284,7.0391 -4.0918,7.0391 -0.2634,0 -2.1048,-3.1683 -4.0918,-7.0391 -7.9995,-15.5831 -22.9031,-27.2882 -40.3828,-31.7148 -4.3313,-1.0964 -54.1563,-1.6358 -103.961,-1.6289 z m 1024.8907,18.8965 c -2.8236,-0.023 -5.7435,1.0414 -7.9004,3.1972 -3.1491,3.1473 -3.1972,3.9022 -3.6289,54.4453 -0.2408,28.1896 -0.044,53.4189 0.4433,56.0645 0.4856,2.6457 2.155,6.0826 3.711,7.6387 3.7352,3.7349 9.8366,3.5884 14.0136,-0.336 l 3.3692,-3.1621 v -55.6074 c 0,-51.8725 -0.1826,-55.8286 -2.6856,-58.9199 -1.7712,-2.1877 -4.4987,-3.2977 -7.3222,-3.3203 z m -196.2325,4.8574 c -23.2098,0 -29.4603,1.3109 -31.4941,6.6113 -0.4972,1.2955 -0.9043,25.0725 -0.9043,52.8399 0,54.4233 0.1005,55.1918 7.793,58.5097 1.715,0.7398 15.89,1.1029 31.4961,0.8086 33.6098,-0.6335 40.398,-2.1944 50.1035,-11.5273 14.2179,-13.6723 11.7315,-36.904 -4.9727,-46.4434 -3.2023,-1.8287 -5.8304,-3.801 -5.8359,-4.3828 -0.01,-0.5817 1.5952,-2.1075 3.5566,-3.3926 9.459,-6.1977 12.4992,-25.1484 5.8535,-36.4883 -7.483,-12.7688 -20.1502,-16.5351 -55.5957,-16.5351 z m -331.2968,0.8418 h 99.0957 99.0976 l 6.3379,3.1211 c 10.6144,5.2254 17.4918,13.5314 20.375,24.6035 1.2932,4.9661 1.4863,17.7032 1.4863,98.3105 0,64.9214 -0.3216,94.1236 -1.0761,97.6797 -3.3322,15.7048 -15.7278,27.1288 -31.9492,29.4453 v 0 c -8.0745,1.1516 -181.2426,1.1371 -189.0762,-0.018 -15.1741,-2.2362 -27.1634,-13.1018 -31.0567,-28.1465 -1.2807,-4.9487 -1.4746,-17.9156 -1.4746,-97.7519 0,-58.25 0.3557,-93.9361 0.9707,-97.1992 2.157,-11.446 10.7656,-22.3146 21.7598,-27.4668 z m 667.6269,3.2422 c -2.3776,0.023 -4.9225,1.1138 -7.4043,3.4453 -2.6542,2.4936 -3.3741,4.728 -3.3906,10.5488 -0.026,8.464 -0.549,9.4687 -6.5254,12.5332 -3.7282,1.9119 -4.3652,3.0696 -4.3652,7.9453 0,4.8757 0.637,6.0374 4.3652,7.9492 2.401,1.2311 4.8476,2.8931 5.4356,3.6934 0.5882,0.8003 1.0788,12.9125 1.0898,26.918 0.023,21.3375 0.4383,26.2741 2.5703,30.455 3.0541,5.9897 8.422,10.166 15.0899,11.7403 6.8135,1.6089 8.3696,1.599 15.8085,-0.1153 8.1261,-1.8723 11.6622,-4.968 11.6622,-10.2089 0,-5.2495 -4.7488,-8.5879 -12.2149,-8.5879 -10.4814,0 -11.0664,-1.5149 -11.0664,-28.5996 v -23.7852 h 8.4063 c 10.6836,0 14.875,-2.6658 14.875,-9.459 0,-6.7933 -4.1914,-9.457 -14.875,-9.457 h -8.4063 v -7.3477 c 0,-10.846 -4.9784,-17.7305 -11.0547,-17.6679 z m -346.9023,16.2871 h 17.5078 c 23.9787,0 30.5117,3.0247 30.5117,14.1308 0,5.5179 -3.6704,10.4645 -9.6035,12.9434 -3.2003,1.3372 -10.5776,2.0273 -21.6367,2.0273 h -16.7793 v -14.5507 z m 275.6992,7.7539 c -7.3925,0.011 -14.7945,1.1967 -19.1992,3.5429 -8.7515,4.6615 -16.1913,12.6357 -20.5664,22.043 -5.0425,10.8422 -5.3622,29.3015 -0.6836,39.5918 5.7311,12.6053 15.2354,21.0108 28.8535,25.5215 9.5989,3.1794 25.4818,1.6935 35.1699,-3.291 10.1404,-5.217 14.1478,-10.1573 12.752,-15.7188 -0.5538,-2.2067 -2.6042,-4.7403 -4.5586,-5.6308 -3.008,-1.3705 -4.8204,-0.9351 -11.8184,2.8398 -10.3446,5.5805 -16.2331,6.7041 -24.3808,4.6524 -7.595,-1.9125 -16.6231,-10.906 -16.6231,-16.5586 v -3.6348 h 28.2129 c 25.6121,0 28.5299,-0.2559 31.6484,-2.7812 2.8007,-2.2681 3.3865,-4.0194 3.1797,-9.4786 -0.5794,-15.3106 -9.9549,-30.7553 -22.8398,-37.625 -4.3701,-2.3299 -11.7541,-3.4861 -19.1465,-3.4726 z m -142.5566,0.2461 c -11.3751,0 -14.1797,0.5333 -21.334,4.0468 -14.9217,7.3276 -24.2371,21.2181 -25.5977,38.168 -1.778,22.1507 10.2399,39.9261 32.1074,47.4824 22.4843,7.7694 47.2014,-2.5673 57.8496,-24.1972 4.2245,-8.5811 4.5303,-10.2074 4.0391,-21.3867 -0.8502,-19.3439 -9.2345,-32.3626 -25.9648,-40.3106 -6.7881,-3.2246 -9.992,-3.8027 -21.0996,-3.8027 z m 301.9355,0.01 c -16.4595,-0.01 -23.989,2.8019 -33.7891,12.6075 -25.5439,25.5586 -15.1071,66.8106 19.6524,77.6738 20.8486,6.5156 46.1149,-3.8953 55.791,-22.9902 12.1497,-23.9762 3.586,-50.7501 -20.2422,-63.2891 -6.729,-3.5411 -9.1578,-3.9965 -21.4121,-4.002 z m -656.7266,2.4258 c -8.466,0 -14.5973,3.8085 -18.7949,11.6778 -1.6724,3.1352 -1.8047,6.7457 -2.0644,56.2382 -0.1527,29.089 -0.5668,52.8907 -0.92,52.8907 -0.3533,0 -12.5046,-11.7709 -27.0039,-26.1563 -27.8137,-27.5954 -28.9082,-28.4257 -37.4824,-28.4004 -4.6607,0.015 -12.6449,4.0427 -15.4258,7.7852 -4.6518,6.2604 -5.8234,14.1105 -3.0957,20.7168 1.0086,2.4425 15.6491,17.7776 46.668,48.8867 35.4903,35.5935 46.2241,45.8201 49.9824,47.6152 5.3606,2.5602 8.4863,2.8204 14.2481,1.1875 3.3652,-0.9535 10.6941,-7.8317 50.2324,-47.1445 31.2424,-31.0642 46.8748,-47.2752 48.082,-49.8594 6.3201,-13.5291 -4.0842,-29.2316 -19.3398,-29.1875 -7.2971,0.023 -11.758,3.5207 -37.6953,29.5684 -13.6852,13.7434 -25.1926,24.9883 -25.5743,24.9883 -0.3816,0 -0.8161,-23.8017 -0.9648,-52.8907 -0.2529,-49.5005 -0.384,-53.1025 -2.0566,-56.2382 -4.1977,-7.8693 -10.3289,-11.6778 -18.795,-11.6778 z m -634.5156,0.3008 c 5.4385,0.011 11.7854,0.049 19.125,0.1211 38.8537,0.3798 41.9977,0.5376 49.166,2.4785 26.6215,7.2081 40.6602,23.6264 40.6602,47.5469 0,8.7193 -1.4476,15.0383 -5.084,22.1953 -2.6797,5.274 -10.1725,13.3977 -14.9746,16.2344 -1.591,0.9398 -2.8926,2.2589 -2.8926,2.9297 0,0.6708 2.6938,2.5379 5.9844,4.1484 12.5731,6.1534 20.6882,14.2234 24.7461,24.6094 2.9767,7.6188 3.6933,25.3076 1.3515,33.3633 -6.1468,21.144 -22.2936,32.8981 -51.2265,37.2851 -6.8735,1.0424 -19.3778,1.376 -51.2129,1.3731 h -42.1211 l -4.8984,-2.2813 c -5.1967,-2.4197 -8.9764,-6.6166 -10.7657,-11.9609 -0.7794,-2.3279 -1.0879,-25.7721 -1.0879,-82.377 v -79.123 l 2.4239,-4.8653 c 2.7921,-5.6031 7.4782,-9.2411 13.9824,-10.8554 2.3557,-0.5847 10.5087,-0.8456 26.8242,-0.8184 z m 358.0508,0.037 c 21.8277,0.023 33.2977,0.2915 35.248,0.8164 12.7861,3.4429 17.9485,18.7928 9.8985,29.4336 -4.9898,6.5955 -3.526,6.4073 -54.4258,6.9375 l -45.9492,0.4785 v 19.1465 19.1445 l 38.7695,0.4786 c 43.0475,0.5314 42.8261,0.5005 48.543,7.0117 2.7955,3.1838 5.0527,8.6044 5.0527,12.1347 0,6.2151 -4.5606,13.2346 -10.6015,16.3164 -3.4617,1.7658 -5.8439,1.8711 -41.8809,1.8711 -31.3003,0 -38.4116,0.2396 -39.3086,1.3204 -0.761,0.9171 -1.0145,7.1196 -0.834,20.3418 l 0.2598,19.0214 46.584,0.4786 46.5879,0.4785 4.1484,2.8847 c 12.1479,8.445 10.7542,26.0196 -2.5508,32.1602 -3.5932,1.6583 -7.3964,1.7656 -61.7441,1.7168 -42.0608,-0.038 -58.77,-0.3614 -61.0371,-1.1836 -4.9168,-1.7832 -9.8602,-6.272 -11.8418,-10.752 -1.748,-3.9512 -1.8098,-7.3065 -1.5645,-85.3769 l 0.2559,-81.2656 2.6093,-3.9434 c 1.4361,-2.1699 4.6671,-5.1539 7.1797,-6.6309 l 4.5703,-2.6855 56.7207,-0.2754 c 9.6086,-0.047 18.0347,-0.066 25.3106,-0.059 z m 773.1328,14.6211 c 4.177,8e-4 8.3349,1.0231 11.0742,3.0684 5.331,3.98 9.0165,9.2672 9.5703,13.7343 l 0.4512,3.6368 -20.6269,0.4043 c -11.3439,0.2214 -20.9791,-0.1705 -21.4141,-0.875 -1.3131,-2.1244 5.3762,-13.701 9.7695,-16.9043 2.8035,-2.0442 6.9988,-3.0654 11.1758,-3.0645 z m -142.0176,0.7949 c 14.9296,0 25.8946,11.7583 25.8946,27.7637 0,9.9663 -3.8218,17.9058 -10.9883,22.8164 -8.928,6.1175 -23.6825,5.1618 -31.8028,-2.0586 -7.1639,-6.3699 -10.5771,-22.2717 -6.8808,-32.0547 3.5017,-9.268 13.8959,-16.4668 23.7773,-16.4668 z m 301.2657,0.012 c 13.0327,0.097 26.0312,10.4121 26.0312,27.6387 0,9.8234 -4.5474,19.0489 -11.5156,23.3555 -5.3657,3.3162 -15.6557,4.7334 -21.2852,2.9297 -15.3442,-4.9159 -22.8808,-23.294 -15.8769,-38.7129 4.7974,-10.5615 13.7293,-15.2777 22.6465,-15.211 z m -1257.8692,21.9239 c -2.907,1e-4 -6.1563,0.024 -9.8027,0.061 l -25.3086,0.2539 -0.2578,19.0235 c -0.1807,13.222 0.073,19.4246 0.834,20.3418 0.8675,1.0452 5.2966,1.3197 21.3203,1.3125 11.1236,0 23.0231,-0.4507 26.4453,-0.9922 8.4778,-1.3417 15.8026,-5.0271 18.707,-9.416 5.0067,-7.5657 3.8975,-18.1254 -2.5488,-24.2637 -5.4699,-5.2085 -9.0391,-6.321 -29.3887,-6.3203 z m 824.3301,0.625 H 4294 c 17.2423,0 21.9394,0.4673 25.7051,2.5234 10.3302,5.6401 8.8107,21.5693 -2.4239,25.4004 -2.9191,0.9954 -13.6549,1.7708 -25.1523,1.8203 l -20.0586,0.082 0.416,-14.9141 z m 156.4238,65.0254 c -2.3803,0 -5.6449,1.1944 -7.2558,2.6523 -2.6189,2.3702 -2.9297,4.464 -2.9297,19.7695 0,21.9623 -0.2956,22.7504 -6.6875,17.875 -22.1048,-16.8601 -53.7032,-5.4702 -62.5215,22.5352 -3.2999,10.4799 -2.3018,27.289 2.2402,37.7363 4.184,9.6237 15.2887,19.919 24.5664,22.7754 13.2619,4.0829 23.7765,2.3115 34.3965,-5.7949 l 6.6133,-5.0469 1.4805,3.8965 c 2.9758,7.8271 11.9079,10.3266 17.373,4.8613 2.8102,-2.8102 2.9102,-4.85 2.9102,-59.4336 0,-54.7965 -0.09,-56.6041 -2.9297,-59.1738 -1.611,-1.4579 -4.8756,-2.6523 -7.2559,-2.6523 z m 382.3731,0.6113 c -2.5287,0.067 -5.1459,1.0107 -7.5254,3.1484 -5.2632,4.7287 -5.6139,10.9134 -0.8848,15.6426 4.0091,4.0093 12.6028,3.8827 17.0039,-0.2519 8.314,-7.8106 0.4371,-18.7762 -8.5937,-18.5391 z m -527.5313,4.4277 c -13.1972,-0.026 -23.3457,0.1595 -24.7265,0.5059 -1.8413,0.462 -4.6405,2.1307 -6.2207,3.7109 -2.7527,2.7528 -2.8731,5.0343 -2.8731,54.4102 0,28.3455 0.4277,52.6471 0.9473,54.0019 0.5197,1.355 2.9738,3.3642 5.455,4.4649 3.5064,1.5552 12.5005,1.9235 40.375,1.6562 32.949,-0.3163 36.1125,-0.5684 38.9239,-3.1152 3.53,-3.1976 3.9825,-9.2334 0.998,-13.3203 -1.899,-2.6006 -4.5237,-2.8828 -33.1035,-3.5528 l -31.041,-0.7265 -0.4219,-13.7012 c -0.3069,-9.9808 0.088,-14.0252 1.4551,-14.8926 1.0322,-0.6548 13.1258,-1.202 26.873,-1.2129 l 24.9942,-0.023 3.041,-3.8652 c 1.9671,-2.5005 2.7188,-4.9427 2.1309,-6.9121 -2.0868,-6.9894 -3.561,-7.37 -31.5645,-8.1387 l -26.5078,-0.7285 -0.418,-14.1875 -0.416,-14.1875 h 29.9492 c 29.8571,0 29.9588,-0.011 33.5196,-3.5723 4.2915,-4.2917 4.5262,-8.0207 0.7929,-12.6348 -2.7639,-3.4161 -2.9768,-3.4359 -38.1601,-3.873 -4.8649,-0.061 -9.6029,-0.096 -14.002,-0.1055 z m 467.5098,4.3145 c -2.2897,-0.039 -4.5378,0.8191 -6.7149,2.582 -2.7328,2.213 -3.464,4.4822 -3.9589,12.252 -0.5467,8.5888 -0.9524,9.6208 -4.0665,10.4023 -1.9014,0.4774 -4.5392,2.5201 -5.8632,4.541 -3.1476,4.8038 -0.8017,10.4371 5.3105,12.7442 l 4.334,1.6367 v 22.8887 c 0,12.59 0.7102,26.205 1.5781,30.2519 1.8869,8.7985 7.5677,15.1179 15.4766,17.2168 7.4841,1.9863 9.3101,2.0042 17.8008,0.1836 15.8312,-3.3952 15.5192,-18.7969 -0.3809,-18.7969 -11.5813,0 -11.9199,-0.7899 -11.9199,-27.8906 v -23.7656 l 10.0371,-0.8614 c 10.6445,-0.9134 13.9726,-3.1339 13.9726,-9.3242 0,-6.3422 -3.482,-8.6842 -14.0683,-9.459 l -9.9414,-0.7265 -0.4317,-9.043 c -0.3685,-7.7199 -0.984,-9.477 -4.1992,-12.0058 -2.3448,-1.8445 -4.6752,-2.7849 -6.9648,-2.8262 z m -1309.1172,0.457 c -25.0273,0 -28.4842,0.1803 -28.9961,1.5137 -1.154,3.0072 -0.6449,39.2028 0.5684,40.416 0.8396,0.8398 8.3726,1.1417 28,1.1309 30.0298,-0.019 37.5195,-0.9532 44.082,-5.4961 10.7666,-7.4531 10.7666,-24.6523 0,-32.0235 -7.1096,-4.8674 -12.415,-5.541 -43.6543,-5.541 z m 1156.8574,22.877 c -1.5751,-0.015 -3.1824,0.026 -4.8203,0.1367 -12.6555,0.8302 -22.5134,5.4833 -30.8984,14.5801 -16.9194,18.3554 -15.9011,49.1402 2.166,65.4629 6.6549,6.0122 10.2557,8.1281 18.4297,10.8222 8.4058,2.7706 25.0066,1.6669 32.9726,-2.1894 8.5337,-4.1312 15.7735,-11.3317 15.7735,-15.6895 0,-4.199 -4.7544,-9.2851 -8.6797,-9.2851 -1.5728,0 -5.9153,1.9371 -9.6485,4.3046 -8.8106,5.5875 -17.2211,6.8736 -24.6504,3.7696 -10.9394,-4.5708 -16.6796,-13.3559 -16.6796,-25.5254 0,-9.5138 2.6414,-15.6576 9.2109,-21.4258 8.7781,-7.7072 19.8076,-8.1084 30.3867,-1.1074 7.2499,4.7979 13.1626,4.7099 17.0703,-0.2578 3.8656,-4.9144 2.8907,-8.5529 -3.9531,-14.7344 -6.2716,-5.6647 -15.6539,-8.7534 -26.6797,-8.8613 z m 82.6055,0.2304 c -3.7394,-0.05 -7.6791,0.226 -11.7832,0.836 -10.8943,1.6203 -19.3821,4.7915 -21.5332,8.0429 -2.3278,3.5184 -1.1057,9.5576 2.3984,11.8536 3.2033,2.1003 4.499,2.096 14.7637,-0.023 14.2626,-2.946 23.0791,-1.8212 28.539,3.6387 3.8056,3.8056 6.7443,10.9218 5.1622,12.5039 -0.4164,0.4169 -5.635,0.079 -11.5957,-0.75 -20.8317,-2.8973 -37.4806,2.3921 -44.3301,14.0801 -3.1398,5.3577 -3.5757,7.5868 -3.0625,15.6426 0.8239,12.9392 6.448,20.0759 19.4648,24.7128 3.155,1.124 8.0718,2.0744 10.9278,2.1075 7.1515,0.088 19.039,-3.64 23.9687,-7.5176 3.087,-2.4283 4.2591,-2.7461 4.7481,-1.2793 2.401,7.2031 12.5293,9.7129 17.8261,4.416 2.8584,-2.8584 2.9708,-4.3442 2.5469,-33.8301 -0.4015,-27.9423 -0.7296,-31.3888 -3.4824,-36.6621 -5.8982,-11.2987 -18.3543,-17.5649 -34.5586,-17.7715 z m 229.0996,0.1192 c -0.192,0 -0.3841,5e-4 -0.5742,0.018 -5.3245,0.4409 -10.0791,9.0631 -20.0157,34.7324 -5.8088,15.0057 -10.9904,27.2832 -11.5156,27.2832 -0.5252,0 -5.8225,-12.5598 -11.7695,-27.9121 -5.947,-15.3523 -11.8648,-29.2131 -13.1504,-30.8008 -5.6364,-6.9607 -20.3103,0.097 -18.1445,8.7266 1.2652,5.0408 31.2203,73.53 33.207,75.9238 0.9291,1.1194 3.022,2.5741 4.6504,3.2344 4.3345,1.7568 6.2764,1.6263 10.834,-0.7305 4.6526,-2.4059 5.6977,-4.4483 24.6719,-48.3184 10.8607,-25.111 13.0755,-31.4321 12.0019,-34.2558 -1.53,-4.0243 -3.9858,-6.2368 -8.4355,-7.5996 -0.6005,-0.1841 -1.1842,-0.2872 -1.7598,-0.3008 z m -442.5352,0.1015 c -1.1849,-0.044 -2.3363,0.336 -3.9746,1.1211 -7.17,3.4382 -7.7718,6.581 -7.3242,38.3008 0.3927,27.8436 0.5747,29.4638 4.0586,36.2285 4.0579,7.8796 8.2863,11.5882 16.8105,14.7539 10.4336,3.875 25.1449,0.7947 33.7403,-7.0644 1.7975,-1.6435 3.4331,-2.7116 3.6367,-2.375 0.203,0.3364 1.0914,1.9189 1.9707,3.5195 2.6652,4.851 8.4995,7.3973 13.1836,5.75 7.3992,-2.6024 7.8374,-5.3036 7.4238,-46.0918 -0.3685,-36.3445 -0.4755,-37.523 -3.5761,-40.6211 -3.8538,-3.8507 -11.2006,-4.2101 -14.6993,-0.7187 -2.0895,2.0851 -2.5974,6.6212 -3.2343,28.9824 -0.8338,29.2745 -2.0765,33.9699 -10.1075,38.123 -6.2387,3.2261 -14.8982,2.8112 -19.6738,-0.9453 -6.927,-5.4488 -8.0215,-10.464 -8.0215,-36.6972 0,-13.1655 -0.4069,-24.9957 -0.9043,-26.2911 -0.4971,-1.2955 -2.8095,-3.3415 -5.1367,-4.5449 -1.7698,-0.9152 -2.9869,-1.3846 -4.1719,-1.4297 z m 504.9493,0.096 c -16.6288,-0.01 -23.9773,2.7957 -34.2325,13.0508 -8.2706,8.2707 -12.4837,17.4197 -13.4257,29.1563 -1.7583,21.9046 11.2418,41.0796 32.455,47.8672 9.2957,2.9746 25.2047,2.1291 34.3672,-1.8243 19.4046,-8.3726 31.0418,-30.0532 27.2227,-50.7129 -2.8148,-15.2262 -10.9699,-26.1659 -25.0157,-33.5585 -6.6816,-3.517 -9.1345,-3.973 -21.371,-3.9786 z m -161.336,0.2305 v 0 c -2.8236,-0.023 -5.7433,1.0381 -7.9004,3.1933 -3.0791,3.0764 -3.2111,4.4212 -3.6582,37.6778 -0.5059,37.646 -0.05,42.7715 4.1836,47.0039 3.7351,3.735 9.8346,3.5905 14.0117,-0.334 3.3568,-3.1539 3.3672,-3.2849 3.3672,-42.0371 0,-35.61 -0.223,-39.1499 -2.6816,-42.1856 -1.7711,-2.1873 -4.4987,-3.2973 -7.3223,-3.3203 z m -418.2832,17.9238 c 6.5065,-0.167 13.1649,2.4787 18.3399,8.6289 10.2407,12.1703 7.8834,33.4299 -4.6211,41.6661 -17.7202,11.6711 -37.8416,-0.7819 -37.9395,-23.4825 -0.069,-15.9335 11.7993,-26.4932 24.2207,-26.8125 z m 578.8906,0.027 c 14.671,0 25.9269,12.0399 25.9434,27.7461 0.011,9.72 -4.5685,18.9647 -11.5117,23.2558 -5.3657,3.3162 -15.6537,4.7315 -21.2832,2.9278 -28.1064,-9.0046 -22.3989,-53.9297 6.8515,-53.9297 z m -288.6933,31.3437 c 5.2672,0.045 10.2549,0.6675 12.5879,1.9219 6.2471,3.3589 3.0442,16.056 -5.2891,20.9648 -4.5234,2.6645 -15.5902,4.1974 -20.1445,2.7911 -11.5062,-3.5525 -13.6692,-16.6457 -3.8164,-23.1016 2.3594,-1.546 8.3387,-2.425 14.3945,-2.5605 0.7569,-0.015 1.5151,-0.023 2.2676,-0.016 z"
       transform="matrix(0.26458333,0,0,0.26458333,-339.42264,-27.303576)"
       id="path826"
       inkscape:connector-curvature="0" />
  </g>
</svg>
